HIERARCHY
ROOT Hips
{
  OFFSET -11.7163 39.8224 26.7717
  CHANNELS 6 Xposition Yposition Zposition Zrotation Xrotation Yrotation
  JOINT LeftHip
  {
    OFFSET 3.43 -1.72424e-013 8.96607e-013
    CHANNELS 6 Xposition Yposition Zposition Zrotation Xrotation Yrotation
    JOINT LeftKnee
    {
      OFFSET -5.19752e-012 -18.47 -1.59872e-014
      CHANNELS 6 Xposition Yposition Zposition Zrotation Xrotation Yrotation
      JOINT LeftAnkle
      {
        OFFSET 4.92564e-012 -17.95 2.56411e-014
        CHANNELS 6 Xposition Yposition Zposition Zrotation Xrotation Yrotation
        End Site
        {
          OFFSET 0 -3.12 0
        }
      }
    }
  }
  JOINT RightHip
  {
    OFFSET -3.43 -2.88829e-013 7.17326e-013
    CHANNELS 6 Xposition Yposition Zposition Zrotation Xrotation Yrotation
    JOINT RightKnee
    {
      OFFSET 5.32907e-015 -18.47 1.12544e-012
      CHANNELS 6 Xposition Yposition Zposition Zrotation Xrotation Yrotation
      JOINT RightAnkle
      {
        OFFSET -3.09153e-012 -17.95 2.0054e-013
        CHANNELS 6 Xposition Yposition Zposition Zrotation Xrotation Yrotation
        End Site
        {
          OFFSET 0 -3.12 0
        }
      }
    }
  }
  JOINT Chest
  {
    OFFSET 4.25995e-012 4.57 1.6724e-012
    CHANNELS 6 Xposition Yposition Zposition Zrotation Xrotation Yrotation
    JOINT Chest2
    {
      OFFSET -1.06581e-014 6.57 -1.77636e-014
      CHANNELS 6 Xposition Yposition Zposition Zrotation Xrotation Yrotation
      JOINT LeftCollar
      {
        OFFSET 1.06 4.19 1.76
        CHANNELS 6 Xposition Yposition Zposition Zrotation Xrotation Yrotation
        JOINT LeftShoulder
        {
          OFFSET 5.81 -7.25945e-013 -3.24679e-012
          CHANNELS 6 Xposition Yposition Zposition Zrotation Xrotation Yrotation
          JOINT LeftElbow
          {
            OFFSET -4.7907e-013 -12.08 -9.6309e-014
            CHANNELS 6 Xposition Yposition Zposition Zrotation Xrotation Yrotation
            JOINT LeftWrist
            {
              OFFSET 2.13163e-014 -9.82 1.42109e-014
              CHANNELS 6 Xposition Yposition Zposition Zrotation Xrotation Yrotation
              End Site
              {
                OFFSET 0 -7.37 0
              }
            }
          }
        }
      }
      JOINT RightCollar
      {
        OFFSET -1.06 4.19 1.76
        CHANNELS 6 Xposition Yposition Zposition Zrotation Xrotation Yrotation
        JOINT RightShoulder
        {
          OFFSET -6.06 -2.46303e-012 -9.49162e-013
          CHANNELS 6 Xposition Yposition Zposition Zrotation Xrotation Yrotation
          JOINT RightElbow
          {
            OFFSET 2.3781e-012 -11.08 6.54e-013
            CHANNELS 6 Xposition Yposition Zposition Zrotation Xrotation Yrotation
            JOINT RightWrist
            {
              OFFSET -1.42109e-014 -9.82 1.06581e-014
              CHANNELS 6 Xposition Yposition Zposition Zrotation Xrotation Yrotation
              End Site
              {
                OFFSET 0 -7.14001 0
              }
            }
          }
        }
      }
      JOINT Neck
      {
        OFFSET -1.77636e-015 4.05 -7.10543e-015
        CHANNELS 6 Xposition Yposition Zposition Zrotation Xrotation Yrotation
        JOINT Head
        {
          OFFSET 1.06581e-014 5.19 3.55271e-015
          CHANNELS 6 Xposition Yposition Zposition Zrotation Xrotation Yrotation
          End Site
          {
            OFFSET 0 4.14001 0
          }
        }
      }
    }
  }
}
MOTION
Frames:	4
Frame Time:	0.0333333
17.4672 36.6259 -18.007 0.0238623 -12.1444 -2.14796 3.43 3.35331e-014 -6.21806e-014 17.343 -7.65606 15.6179 -2.48314e-014 -18.47 -1.59872e-014 -0.498511 44.026 3.39824 -3.42666e-014 -17.95 -2.78752e-014 -12.8524 -18.8312 -2.14004 -3.43 6.12171e-014 4.05436e-014 -12.282 -10.6615 -9.59192 5.32907e-015 -18.47 -4.58346e-014 -2.83271 46.7653 1.02275 1.22382e-014 -17.95 -2.4317e-014 10.6119 -21.867 2.05563 7.3198e-015 4.57 -7.45381e-015 -0.929573 3.87985 -0.102165 -1.06581e-014 6.57 -1.77636e-014 -0.817698 3.51373 -0.164537 1.06 4.19 1.76 5.2058 0.42934 -0.914109 5.81 -3.90298e-015 2.446e-014 110.267 -54.8483 37.7299 -4.06348e-015 -12.08 -2.02139e-014 -12.1436 -40.6321 -39.9004 2.13163e-014 -9.82 1.42109e-014 2.69261 -6.66259 0.156757 -1.06 4.19 1.76 -5.54085 0.210242 4.68348 -6.06 -8.15927e-015 -2.33138e-014 -103.209 -59.6962 -20.3961 1.41962e-013 -11.08 -2.52596e-014 4.47212 -35.6835 26.3978 -1.42109e-014 -9.82 1.06581e-014 -7.1319 -9.56224 -0.597283 -1.77636e-015 4.05 -7.10543e-015 0.677774 9.85412 0.527017 1.06581e-014 5.19 3.55271e-015 -0.147297 4.61679 0.792163 
17.4642 36.6277 -18.007 0.0161964 -12.1349 -2.13532 3.43 4.87168e-014 -1.42557e-013 17.3898 -7.65978 15.6666 -2.50625e-014 -18.47 -1.59872e-014 -0.538191 44.0109 3.38951 -3.18713e-014 -17.95 -2.82893e-014 -12.8241 -18.8093 -2.13275 -3.43 5.44131e-014 3.76928e-014 -12.2812 -10.6534 -9.61242 5.32907e-015 -18.47 -4.5259e-014 -2.80974 46.7503 0.997949 1.18209e-014 -17.95 -2.30532e-014 10.604 -21.8625 2.05366 -1.24673e-013 4.57 -3.86471e-015 -0.929078 3.89382 -0.0748746 -1.06581e-014 6.57 -1.77636e-014 -0.820196 3.52628 -0.13881 1.06 4.19 1.76 5.27851 0.426156 -0.920075 5.81 -9.36751e-015 2.36595e-014 110.214 -54.8883 37.8415 8.1043e-015 -12.08 -2.84765e-014 -12.0756 -40.5843 -40.0891 2.13163e-014 -9.82 1.42109e-014 2.8166 -6.67427 0.16427 -1.06 4.19 1.76 -5.51553 0.213084 4.66346 -6.06 -5.33861e-015 -2.00501e-014 -103.257 -59.6644 -20.5055 1.41867e-013 -11.08 -2.67581e-014 4.47255 -35.6558 26.2029 -1.42109e-014 -9.82 1.06581e-014 -7.02941 -9.59304 -0.590579 -1.77636e-015 4.05 -7.10543e-015 0.680784 9.85013 0.527624 1.06581e-014 5.19 3.55271e-015 -0.0152916 4.53693 0.752601 
17.4574 36.6264 -17.9963 0.0289944 -12.2125 -2.09294 3.43 7.21159e-014 -2.10258e-013 17.3954 -7.57733 15.6709 -2.56106e-014 -18.47 -1.59872e-014 -0.528282 44.0092 3.32279 -2.86666e-014 -17.95 -2.86564e-014 -12.8162 -18.818 -2.13243 -3.43 4.41782e-014 3.47709e-014 -12.2815 -10.5553 -9.61365 5.32907e-015 -18.47 -4.45608e-014 -2.83357 46.7653 0.977915 1.12267e-014 -17.95 -2.11958e-014 10.6297 -21.8913 2.06145 -2.4192e-013 4.57 1.62357e-015 -0.934166 3.99087 -0.0959996 -1.06581e-014 6.57 -1.77636e-014 -0.822214 3.61487 -0.158883 1.06 4.19 1.76 5.20767 0.433762 -0.818248 5.81 -1.50586e-014 2.25731e-014 110.458 -54.9656 38.266 2.71147e-014 -12.08 -4.19161e-014 -12.0141 -40.4588 -40.2362 2.13163e-014 -9.82 1.42109e-014 2.80274 -6.68208 0.163656 -1.06 4.19 1.76 -5.691 0.203158 4.60815 -6.06 -6.54251e-015 -1.54485e-014 -103.26 -59.7632 -20.8618 1.41885e-013 -11.08 -2.93458e-014 4.45339 -35.5547 26.2817 -1.42109e-014 -9.82 1.06581e-014 -6.99309 -9.59958 -0.587929 -1.77636e-015 4.05 -7.10543e-015 0.615292 9.79448 0.567408 1.06581e-014 5.19 3.55271e-015 0.17961 4.38326 0.714423 
17.4529 36.6299 -17.9911 0.0441829 -12.2356 -2.0518 3.43 1.02259e-013 -2.73528e-013 17.4157 -7.54454 15.7052 -2.6471e-014 -18.47 -1.59872e-014 -0.565212 43.9714 3.28153 -2.46605e-014 -17.95 -2.8977e-014 -12.7746 -18.7896 -2.1222 -3.43 3.07111e-014 3.1782e-014 -12.279 -10.4935 -9.62556 5.32907e-015 -18.47 -4.37411e-014 -2.83237 46.7513 0.965471 1.04565e-014 -17.95 -1.87553e-014 10.6253 -21.914 2.06277 -3.57329e-013 4.57 8.98192e-015 -0.931068 4.02631 -0.0887879 -1.06581e-014 6.57 -1.77636e-014 -0.820316 3.64709 -0.151976 1.06 4.19 1.76 5.2037 0.43509 -0.793855 5.81 -2.08986e-014 2.12073e-014 110.491 -55.0527 38.4618 5.03191e-014 -12.08 -5.9952e-014 -11.9705 -40.3513 -40.2923 2.13163e-014 -9.82 1.42109e-014 2.72222 -6.78275 0.161337 -1.06 4.19 1.76 -5.79809 0.194847 4.61828 -6.06 -2.14299e-014 -9.53307e-015 -103.048 -59.7217 -20.8483 1.42017e-013 -11.08 -3.29921e-014 4.40549 -35.5788 26.3152 -1.42109e-014 -9.82 1.06581e-014 -7.07681 -9.54716 -0.591712 -1.77636e-015 4.05 -7.10543e-015 0.56769 9.79584 0.571842 1.06581e-014 5.19 3.55271e-015 0.22359 4.39371 0.685072 
